# xmcd
#
# Track frame offsets:
#	150
#	20470
#	37601
#	60298
#	83493
#	107084
#	121876
#	140068
#	165562
#	186974
#	207603
#	232497
#	236519
#	260797
#	276766
#
# Disc length: 4019 seconds
# Revision: 1
# Processed by: cddbd v1.5.2PL0 Copyright (c) Steve Scherf et al.
# Submitted via: dBpowerAMP V12.0
#
DISCID=d10fb10f
DTITLE=Greensky Bluegrass - Five Interstates
DYEAR=2008
DGENRE=Country
TTITLE0=Old Barns
TTITLE1=Into the Rafters
TTITLE2=Reverend
TTITLE3=200 Miles from Montana
TTITLE4=Indian Trail
TTITLE5=Just to Lie
TTITLE6=Ryder's Song
TTITLE7=Train Junkie
TTITLE8=Can't Make Time
TTITLE9=Freeborn Man
TTITLE10=Nine Days
TTITLE11=Midnight Mass for Albert
TTITLE12=Dry County
TTITLE13=Against the Days
TTITLE14=What's Left of the Night
EXTD=
EXTT0=
EXTT1=
EXTT2=
EXTT3=
EXTT4=
EXTT5=
EXTT6=
EXTT7=
EXTT8=
EXTT9=
EXTT10=
EXTT11=
EXTT12=
EXTT13=
EXTT14=
PLAYORDER=
